<svg version="1.1" id="Layer_1" xmlns="http://www.w3.org/2000/svg" xmlns:xlink="http://www.w3.org/1999/xlink" x="0px" y="0px"
	 width="100%" viewBox="0 0 1024 1024" enable-background="new 0 0 1024 1024" xml:space="preserve">
<path fill="#000000" opacity="1.000000" stroke="none" 
	d="
M382.801727,850.308594 
	C361.660339,840.032898 342.745056,827.061279 325.219086,812.042969 
	C311.621246,800.390808 307.687714,787.753479 312.836121,773.535828 
	C314.703735,768.378357 317.786255,763.971985 321.901764,760.557800 
	C339.966614,745.571289 357.634186,729.999817 378.931366,719.492554 
	C380.969727,718.486877 382.394318,717.317505 382.387817,714.608582 
	C382.356781,701.621338 382.447083,688.631958 382.690948,675.647095 
	C382.760742,671.931580 381.762726,668.967224 379.354218,666.092346 
	C362.806763,646.340881 351.322784,624.064697 346.246765,598.661743 
	C346.214325,598.499329 346.093658,598.340820 346.103180,598.185913 
	C346.834167,586.254822 339.588867,580.319336 330.564941,573.863953 
	C310.123871,559.241150 298.864227,538.992310 298.548859,513.150085 
	C298.296783,492.493805 304.452332,474.422302 318.795197,459.515045 
	C324.769867,453.305328 322.193817,446.129669 322.383057,439.223694 
	C322.425751,437.664825 320.627991,437.607147 319.286102,437.330536 
	C307.383972,434.877472 300.719666,426.998230 300.652069,414.939362 
	C300.551239,396.942047 300.436432,378.939331 300.796753,360.948303 
	C300.902771,355.656281 299.095947,353.219025 294.206604,351.618408 
	C261.303711,340.847076 228.491516,329.798981 195.603271,318.982483 
	C188.939987,316.790985 183.035248,313.861938 178.946808,307.857788 
	C170.171982,294.971313 174.137344,277.134521 188.415512,270.925079 
	C204.729935,263.830109 221.669327,258.171844 238.338898,251.893982 
	C273.080414,238.810120 307.769012,225.583267 342.579895,212.686615 
	C380.501251,198.637589 418.536469,184.895905 456.522156,171.020599 
	C469.184692,166.395248 481.864288,161.815903 494.505493,157.133057 
	C505.908600,152.908859 517.085876,153.043533 528.575684,157.336304 
	C590.335510,180.410751 652.193359,203.222885 713.986206,226.209366 
	C751.902405,240.313934 789.772156,254.543747 827.642273,268.771729 
	C838.602051,272.889343 844.399841,281.058807 845.212769,292.608032 
	C845.934875,302.866760 840.164612,311.944550 829.514343,316.389587 
	C820.621826,320.100983 811.454163,323.264648 802.199341,325.950745 
	C797.344788,327.359741 796.223511,329.757629 796.231262,334.441986 
	C796.350952,406.934540 796.308777,479.427399 796.283813,551.920166 
	C796.278809,566.404968 785.929077,576.666565 771.764404,576.329224 
	C760.572021,576.062744 750.865601,566.356812 750.694702,555.052734 
	C750.563721,546.388977 750.672913,537.721558 750.673218,529.055786 
	C750.675293,469.894989 750.680664,410.734161 750.673950,351.573364 
	C750.673035,343.497986 750.541382,343.383545 742.874390,345.794525 
	C737.002869,347.640839 731.202515,349.714935 725.321472,351.528870 
	C721.640015,352.664337 720.137634,354.695038 720.188782,358.778015 
	C720.407715,376.273407 720.274841,393.773285 720.260071,411.271515 
	C720.247925,425.618073 714.327026,433.516815 700.519531,437.370728 
	C698.400024,437.962341 697.473511,438.987854 697.340881,441.139801 
	C696.841003,449.249359 697.571777,456.280334 704.008484,462.952637 
	C722.762207,482.392761 727.280334,519.597656 714.172791,543.630859 
	C705.610779,559.329834 694.972595,572.237915 679.716980,581.375305 
	C677.240295,582.858765 676.736511,585.268738 676.396851,587.746948 
	C673.785217,606.802795 666.614990,624.158325 657.704102,641.084045 
	C653.000610,650.018188 647.347717,658.063232 641.040894,665.792053 
	C638.312683,669.135376 637.108215,672.825195 637.206543,677.293823 
	C637.470337,689.286621 637.377808,701.290466 637.221130,713.287231 
	C637.178589,716.541687 638.278503,718.184937 641.258911,719.751770 
	C662.325256,730.827393 681.215820,745.133057 698.619568,761.169739 
	C713.419556,774.807251 712.894592,793.775574 698.771179,807.998108 
	C672.979980,833.970642 641.561401,850.676147 607.609314,863.093201 
	C582.469788,872.287354 556.461243,877.366821 529.757996,879.478394 
	C488.706421,882.724487 449.261536,875.828552 410.736969,862.082214 
	C401.310760,858.718750 392.213135,854.638367 382.801727,850.308594 
M344.496582,503.165802 
	C343.931885,506.927429 342.964966,510.593231 343.612793,514.522095 
	C345.922211,528.527893 353.660797,537.937378 367.194458,542.104492 
	C377.796417,545.369019 382.930756,552.724426 384.326599,563.167419 
	C386.817352,581.801941 391.808929,599.585449 400.982178,616.144531 
	C423.160156,656.179077 474.206787,689.025391 526.520020,680.782532 
	C554.898865,676.311035 578.760010,663.407410 598.661072,643.054138 
	C620.242676,620.982178 632.772278,594.576172 635.742249,563.685669 
	C636.803040,552.652527 642.004028,544.525208 653.472046,541.546082 
	C658.234558,540.308899 662.259705,537.604370 665.962158,534.435852 
	C681.090332,521.489319 679.528320,497.546722 662.708984,487.016663 
	C654.969971,482.171509 651.914001,475.048370 651.709839,466.422363 
	C651.497070,457.428955 651.629517,448.427490 651.596008,439.429596 
	C651.584595,436.357574 650.971252,433.476288 647.149719,433.487885 
	C639.842102,433.510040 632.479309,432.520264 625.235535,434.118195 
	C612.200317,436.993713 599.782715,441.889008 587.131958,446.011597 
	C565.452515,453.076355 543.826843,460.306427 522.168884,467.437347 
	C513.615662,470.253479 505.153259,469.709076 496.711548,466.759430 
	C474.563995,459.020752 452.344208,451.486694 430.238678,443.630554 
	C412.760681,437.419067 395.302582,431.666382 376.289520,433.269897 
	C368.590302,433.919220 368.344421,433.680420 368.336975,441.140320 
	C368.328674,449.471832 368.504608,457.808197 368.275360,466.133514 
	C368.028381,475.104492 364.867950,482.840210 356.857361,487.643524 
	C350.965149,491.176636 347.305145,496.279083 344.496582,503.165802 
M645.422974,251.201263 
	C631.856384,246.136322 618.282715,241.090302 604.724670,236.002548 
	C575.112671,224.890457 545.507141,213.761215 515.903748,202.626160 
	C513.018799,201.540985 510.286377,201.300293 507.223419,202.426331 
	C462.222412,218.969772 417.188110,235.422607 372.153961,251.875824 
	C338.218994,264.273956 304.271973,276.639069 270.335205,289.032257 
	C268.741547,289.614288 266.841461,289.806244 265.744781,292.134735 
	C268.324860,293.130432 270.597595,294.089050 272.923859,294.892639 
	C295.741974,302.774780 318.528473,310.752625 341.427429,318.393127 
	C346.052734,319.936432 347.528503,322.237823 347.458008,327.033295 
	C347.188416,345.362335 347.464661,363.698975 347.266754,382.029846 
	C347.219269,386.430206 348.665131,387.882416 353.023499,387.742859 
	C361.514679,387.470978 370.044464,388.071075 378.515686,387.578430 
	C397.483276,386.475372 415.653503,390.714386 433.439819,396.163971 
	C454.758362,402.695892 475.622833,410.696808 496.793427,417.732147 
	C503.589325,419.990509 510.229889,423.406433 518.044373,420.730438 
	C541.190674,412.804199 564.389221,405.011017 587.718567,397.644867 
	C605.633545,391.988251 623.657715,386.572540 642.875793,387.605011 
	C650.686523,388.024628 658.551331,387.405701 666.367065,387.775818 
	C671.536865,388.020660 673.191101,386.058807 672.838074,381.115601 
	C672.518494,376.640564 672.434998,372.077332 672.942871,367.632446 
	C673.585876,362.004425 671.232605,359.367828 666.138123,357.292236 
	C628.054810,341.776001 590.033081,326.104584 552.130615,310.152679 
	C546.464111,307.767822 542.655334,307.648346 537.510620,311.847992 
	C523.358826,323.400024 504.740448,324.100281 489.976318,314.734009 
	C476.299774,306.057709 469.534973,289.271027 472.951263,272.486664 
	C476.747314,253.836624 493.076721,241.436737 513.526062,241.675812 
	C531.722656,241.888550 549.291626,256.438049 552.036804,274.161224 
	C552.603943,277.822296 554.172424,279.279999 557.142883,280.475922 
	C582.165771,290.550385 607.160217,300.695221 632.169800,310.802612 
	C643.594666,315.419861 655.026306,320.020935 666.475708,324.576904 
	C668.260925,325.287262 670.993896,326.781342 671.791504,324.406525 
	C673.539490,319.201508 678.116333,318.979767 681.980835,317.644043 
	C703.536804,310.193268 725.159485,302.935730 746.728821,295.523102 
	C748.784302,294.816681 751.417053,294.684052 752.564087,291.245087 
	C717.049255,277.959900 681.604736,264.701019 645.422974,251.201263 
M489.279572,726.392334 
	C467.749969,723.716187 447.852661,716.139954 429.115631,705.880859 
	C427.691498,707.070923 427.761505,708.247803 427.774139,709.416504 
	C427.864014,717.738037 428.076050,726.061218 427.974731,734.380432 
	C427.930298,738.026611 429.097717,740.615662 431.983185,742.927002 
	C460.026642,765.391968 492.007233,774.747620 527.521851,770.385010 
	C550.068481,767.615295 570.408997,758.732300 587.892944,743.820679 
	C590.023132,742.003723 590.927979,740.149475 590.913452,737.433411 
	C590.867981,728.944214 591.038940,720.453857 591.004333,711.964478 
	C590.996643,710.075928 591.509766,707.991760 590.113403,706.361023 
	C588.491516,706.130737 587.435059,707.071960 586.315796,707.715332 
	C574.255920,714.646423 561.342834,719.527161 547.943970,722.981079 
	C528.954712,727.876038 509.695343,729.747375 489.279572,726.392334 
M408.789764,810.678772 
	C429.759979,820.373413 451.755524,826.632019 474.502838,830.444946 
	C487.211823,832.575256 487.063660,832.673401 486.823059,820.702698 
	C486.749847,817.060852 485.210266,815.922424 481.905304,815.255859 
	C475.240265,813.911865 468.602783,812.318542 462.080872,810.397156 
	C435.783417,802.649902 412.518188,789.478577 392.408600,770.817078 
	C390.178955,768.747925 388.381195,767.248901 385.356598,769.896118 
	C381.359772,773.394104 376.930389,776.394287 372.733429,779.668091 
	C367.934418,783.411560 367.941864,785.019470 372.833588,788.726501 
	C383.878235,797.095947 395.608307,804.357361 408.789764,810.678772 
M583.634216,822.089294 
	C609.133484,813.948181 632.469727,801.951294 653.525574,783.896973 
	C646.625305,778.945007 640.629333,774.797607 634.821960,770.401184 
	C632.349976,768.529785 630.422974,768.626587 628.277405,770.700378 
	C625.167053,773.706360 622.179138,776.889709 618.782532,779.540527 
	C596.007690,797.314758 570.684509,809.654419 542.190430,815.230530 
	C533.191956,816.991516 533.227600,817.173584 533.349609,826.139526 
	C533.422485,831.494629 534.255371,832.084900 539.533813,831.483093 
	C554.274048,829.802429 568.659668,826.484009 583.634216,822.089294 
z"/>
</svg>